<svg xmlns="http://www.w3.org/2000/svg">
    <symbol id="icon-leaf" viewBox="0 0 24 24">
        <path d="M20 4c-7.5 1.2-12.7 6.4-13.9 13.9" />
        <path d="M20 4c-4.2 9.2-10.8 13.2-16 14" />
        <path d="M7.5 14.5c1.5-1.2 3.8-2.6 6.5-3.2" />
    </symbol>

    <symbol id="icon-hand" viewBox="0 0 24 24">
        <path d="M8.5 12V6.2a1.2 1.2 0 0 1 2.4 0V12" />
        <path d="M10.9 12V5.6a1.2 1.2 0 0 1 2.4 0V12" />
        <path d="M13.3 12V6.4a1.2 1.2 0 0 1 2.4 0V12" />
        <path d="M15.7 12V8.3a1.2 1.2 0 0 1 2.4 0V14c0 4-2.2 6.5-6.1 6.5H11c-2 0-3.6-1.1-4.5-2.7L5 15.1a1.4 1.4 0 0 1 2.4-1.4L8.5 12z" />
    </symbol>

    <symbol id="icon-heart" viewBox="0 0 24 24">
        <path d="M12 21s-7-4.4-7-11a4 4 0 0 1 7-2a4 4 0 0 1 7 2c0 6.6-7 11-7 11z" />
    </symbol>

    <symbol id="icon-wheat" viewBox="0 0 24 24">
        <path d="M12 3v18" />
        <path d="M12 7c-2 0-3.5-1.6-3.5-3.5C10.5 3.5 12 5 12 7z" />
        <path d="M12 7c2 0 3.5-1.6 3.5-3.5C13.5 3.5 12 5 12 7z" />
        <path d="M12 12c-2 0-3.5-1.6-3.5-3.5C10.5 8.5 12 10 12 12z" />
        <path d="M12 12c2 0 3.5-1.6 3.5-3.5C13.5 8.5 12 10 12 12z" />
        <path d="M12 17c-2 0-3.5-1.6-3.5-3.5C10.5 13.5 12 15 12 17z" />
        <path d="M12 17c2 0 3.5-1.6 3.5-3.5C13.5 13.5 12 15 12 17z" />
    </symbol>

    <symbol id="icon-spark" viewBox="0 0 24 24">
        <path d="M12 2l1.3 5.2L18 8.5l-4.7 1.3L12 15l-1.3-5.2L6 8.5l4.7-1.3L12 2z" />
        <path d="M19 13l.7 2.6L22 16.3l-2.3.7L19 19l-.7-2.6L16 15.7l2.3-.7L19 13z" />
    </symbol>

    <symbol id="icon-flame" viewBox="0 0 24 24">
        <path d="M12 22c4 0 7-3 7-7c0-3.5-2.1-5.6-4.4-8.2c-.4 2.2-1.8 3.6-3.3 4.7C9.4 12.9 8.5 14.1 8.5 16c0 3.3 1.9 6 3.5 6z" />
        <path d="M10.5 16.2c0 1.6 1 3.1 1.5 3.1s1.5-1.5 1.5-3.1c0-1.2-.7-2.2-1.5-2.8c-.8.6-1.5 1.6-1.5 2.8z" />
    </symbol>

    <symbol id="icon-seed" viewBox="0 0 24 24">
        <path d="M12 21c-4.5-2.4-7-6-7-9.5C5 7 8 4 12 4s7 3 7 7.5c0 3.5-2.5 7.1-7 9.5z" />
        <path d="M12 8v8" />
    </symbol>

    <symbol id="icon-star" viewBox="0 0 24 24">
        <path d="M12 2.8l2.7 5.6l6.1.9l-4.4 4.3l1 6.1L12 16.9L6.6 19.7l1-6.1L3.2 9.3l6.1-.9L12 2.8z" />
    </symbol>

    <symbol id="icon-chat" viewBox="0 0 24 24">
        <path d="M21 13c0 4-4 7-9 7c-1.1 0-2.1-.1-3.1-.4L3 21l1.5-3.6C3.6 16 3 14.6 3 13c0-4 4-7 9-7s9 3 9 7z" />
        <path d="M8 12h8" />
        <path d="M8 9h5" />
    </symbol>

    <symbol id="icon-package" viewBox="0 0 24 24">
        <path d="M7 7l5-3l5 3v6l-5 3l-5-3V7z" />
        <path d="M7 7l5 3l5-3" />
        <path d="M12 10v6" />
    </symbol>

    <symbol id="icon-check" viewBox="0 0 24 24">
        <path d="M20 6L9 17l-5-5" />
    </symbol>

    <symbol id="icon-no" viewBox="0 0 24 24">
        <circle cx="12" cy="12" r="9" />
        <path d="M7 17L17 7" />
    </symbol>

    <symbol id="icon-bolt" viewBox="0 0 24 24">
        <path d="M13 2L4 14h7l-1 8 10-12h-7V2z" />
    </symbol>

    <symbol id="icon-bowl" viewBox="0 0 24 24">
        <path d="M4 11h16c0 5-4 9-8 9s-8-4-8-9z" />
        <path d="M7 21h10" />
        <path d="M9 4c0 1 1 1 1 2s-1 1-1 2" />
        <path d="M13 4c0 1 1 1 1 2s-1 1-1 2" />
    </symbol>

    <symbol id="icon-cup" viewBox="0 0 24 24">
        <path d="M5 8h10v7a4 4 0 0 1-4 4H9a4 4 0 0 1-4-4V8z" />
        <path d="M15 10h2a3 3 0 0 1 0 6h-2" />
        <path d="M6 6h8" />
    </symbol>
</svg>
